<svg width="123" height="43" viewBox="0 0 123 43" fill="none" xmlns="http://www.w3.org/2000/svg">
<path d="M0 23.3132C0 21.3095 0.418816 19.5562 1.25645 18.0533C2.09408 16.5266 3.23967 15.3458 4.6932 14.5109C6.17138 13.676 7.80969 13.2585 9.60813 13.2585C11.3819 13.2585 12.9217 13.6283 14.2274 14.3678C15.5332 15.1073 16.5063 16.0376 17.1468 17.1588V13.5806H20.5466V33.189H17.1468V29.5393C16.4816 30.6843 15.4839 31.6385 14.1535 32.4018C12.8478 33.1413 11.3204 33.5111 9.57118 33.5111C7.77273 33.5111 6.14674 33.0817 4.6932 32.2229C3.23967 31.3642 2.09408 30.1595 1.25645 28.609C0.418816 27.0584 0 25.2932 0 23.3132ZM17.1468 23.349C17.1468 21.87 16.8389 20.5819 16.223 19.4846C15.6071 18.3873 14.7694 17.5524 13.7101 16.9799C12.6753 16.3835 11.5298 16.0853 10.2733 16.0853C9.01686 16.0853 7.87128 16.3716 6.83656 16.9441C5.80183 17.5166 4.97652 18.3515 4.36062 19.4488C3.74471 20.5461 3.43676 21.8343 3.43676 23.3132C3.43676 24.8161 3.74471 26.1281 4.36062 27.2492C4.97652 28.3466 5.80183 29.1934 6.83656 29.7898C7.87128 30.3623 9.01686 30.6485 10.2733 30.6485C11.5298 30.6485 12.6753 30.3623 13.7101 29.7898C14.7694 29.1934 15.6071 28.3466 16.223 27.2492C16.8389 26.1281 17.1468 24.828 17.1468 23.349Z" fill="#59585A"/>
<path d="M40.3461 13.5806L28.1511 42.4207H24.6774L28.6685 32.9743L20.5016 13.5806H24.234L30.5901 29.4677L36.8724 13.5806H40.3461Z" fill="#59585A"/>
<path d="M58.3605 13.5806V33.189H54.9976V30.2907C54.3571 31.2926 53.4579 32.0798 52.2999 32.6523C51.1667 33.201 49.9102 33.4753 48.5306 33.4753C46.9539 33.4753 45.5373 33.1652 44.2808 32.545C43.0244 31.9009 42.0266 30.9467 41.2875 29.6824C40.5731 28.4181 40.2159 26.8795 40.2159 25.0666V13.5806H43.5418V24.6372C43.5418 26.5694 44.0468 28.0603 45.0569 29.1099C46.067 30.1356 47.4466 30.6485 49.1958 30.6485C50.9942 30.6485 52.4108 30.1118 53.4455 29.0383C54.4803 27.9649 54.9976 26.4024 54.9976 24.3509V13.5806H58.3605Z" fill="#59585A"/>
<path d="M64.0754 17.1945C64.7406 16.0734 65.726 15.1431 67.0317 14.4036C68.3621 13.6402 69.9019 13.2585 71.651 13.2585C73.4495 13.2585 75.0755 13.676 76.529 14.5109C78.0072 15.3458 79.1651 16.5266 80.0027 18.0533C80.8404 19.5562 81.2592 21.3095 81.2592 23.3132C81.2592 25.2932 80.8404 27.0584 80.0027 28.609C79.1651 30.1595 78.0072 31.3642 76.529 32.2229C75.0755 33.0817 73.4495 33.5111 71.651 33.5111C69.9265 33.5111 68.3991 33.1413 67.0687 32.4018C65.763 31.6385 64.7652 30.6962 64.0754 29.5751V42.4923H60.7126V13.5806H64.0754V17.1945ZM77.8224 23.3132C77.8224 21.8343 77.5145 20.5461 76.8986 19.4488C76.2827 18.3515 75.445 17.5166 74.3857 16.9441C73.3509 16.3716 72.2054 16.0853 70.9489 16.0853C69.7171 16.0853 68.5715 16.3835 67.5122 16.9799C66.4774 17.5524 65.6398 18.3992 64.9993 19.5204C64.3834 20.6177 64.0754 21.8939 64.0754 23.349C64.0754 24.828 64.3834 26.1281 64.9993 27.2492C65.6398 28.3466 66.4774 29.1934 67.5122 29.7898C68.5715 30.3623 69.7171 30.6485 70.9489 30.6485C72.2054 30.6485 73.3509 30.3623 74.3857 29.7898C75.445 29.1934 76.2827 28.3466 76.8986 27.2492C77.5145 26.1281 77.8224 24.8161 77.8224 23.3132Z" fill="#59585A"/>
<path d="M85.7226 6.71048V33.189H82.3597V6.71048H85.7226Z" fill="#59585A"/>
<path d="M106.088 13.5806V33.189H102.725V30.2907C102.084 31.2926 101.185 32.0798 100.027 32.6523C98.8941 33.201 97.6377 33.4753 96.258 33.4753C94.6813 33.4753 93.2647 33.1652 92.0083 32.545C90.7518 31.9009 89.7541 30.9467 89.015 29.6824C88.3005 28.4181 87.9433 26.8795 87.9433 25.0666V13.5806H91.2692V24.6372C91.2692 26.5694 91.7742 28.0603 92.7843 29.1099C93.7944 30.1356 95.174 30.6485 96.9232 30.6485C98.7216 30.6485 100.138 30.1118 101.173 29.0383C102.208 27.9649 102.725 26.4024 102.725 24.3509V13.5806H106.088Z" fill="#59585A"/>
<path d="M115.609 33.5111C114.057 33.5111 112.665 33.2606 111.433 32.7596C110.201 32.2348 109.228 31.5192 108.514 30.6127C107.799 29.6824 107.405 28.6209 107.331 27.4282H110.805C110.904 28.4062 111.372 29.2053 112.209 29.8255C113.072 30.4458 114.193 30.7559 115.572 30.7559C116.853 30.7559 117.863 30.4815 118.602 29.9329C119.342 29.3842 119.711 28.6924 119.711 27.8575C119.711 26.9988 119.317 26.3666 118.529 25.9611C117.74 25.5317 116.521 25.1143 114.87 24.7087C113.367 24.3271 112.135 23.9454 111.175 23.5637C110.238 23.1582 109.425 22.5738 108.736 21.8104C108.07 21.0232 107.738 19.9975 107.738 18.7332C107.738 17.7313 108.046 16.8129 108.662 15.978C109.278 15.1431 110.152 14.4871 111.285 14.01C112.419 13.509 113.712 13.2585 115.166 13.2585C117.408 13.2585 119.218 13.8072 120.598 14.9045C121.978 16.0018 122.717 17.5047 122.815 19.413H119.452C119.378 18.3873 118.947 17.5643 118.159 16.9441C117.395 16.3239 116.361 16.0138 115.055 16.0138C113.848 16.0138 112.887 16.2642 112.172 16.7652C111.458 17.2661 111.101 17.9221 111.101 18.7332C111.101 19.3772 111.31 19.914 111.729 20.3433C112.172 20.7489 112.714 21.0828 113.355 21.3452C114.02 21.5838 114.932 21.8581 116.09 22.1682C117.543 22.5499 118.726 22.9316 119.637 23.3132C120.549 23.6711 121.325 24.2197 121.965 24.9592C122.63 25.6987 122.975 26.6648 123 27.8575C123 28.931 122.692 29.8971 122.076 30.7559C121.46 31.6146 120.586 32.2945 119.452 32.7954C118.344 33.2725 117.063 33.5111 115.609 33.5111Z" fill="#59585A"/>
<path d="M116.329 9.36924e-05C116.329 6.72737 110.822 12.2315 104.091 12.2315C104.091 5.50422 109.537 9.25049e-05 116.329 9.36924e-05Z" fill="#69B109"/>
<path d="M91.7914 9.15527e-05C98.5831 9.27402e-05 104.029 5.44307 104.029 12.2315C97.2982 12.2315 91.7914 6.78852 91.7914 9.15527e-05Z" fill="#92CF42"/>
</svg>
